inDegrees=no
num_controls=7
num_derivatives=13
num_iterations=128
num_multipliers=7
num_parameters=0
num_slacks=7
num_states=26
objective=5.024976
objective_accelerations=0.703774
objective_balance=0.081713
objective_effort=0.695973
objective_height=3.450178
objective_ligament=0.093337
solver_duration=1362.691378
status=Solve_Succeeded
success=true
DataType=double
version=3
OpenSimVersion=4.4-2022-07-23-0e9fedc
endheader
time	/jointset/ground_pelvis/pelvis_tilt/value	/jointset/ground_pelvis/pelvis_tx/value	/jointset/ground_pelvis/pelvis_ty/value	/jointset/hip_l/hip_flexion_l/value	/jointset/hip_l/hip_adduction_l/value	/jointset/hip_l/hip_rotation_l/value	/jointset/back/lumbar_extension/value	/jointset/patellofemoral_l/patellar_flexion_l/value	/jointset/knee_l/knee_flexion_l/value	/jointset/knee_l/knee_adduction_l/value	/jointset/knee_l/knee_rotation_l/value	/jointset/ankle_l/ankle_angle_l/value	/jointset/subtalar_l/subtalar_angle_l/value	/jointset/ground_pelvis/pelvis_tilt/speed	/jointset/ground_pelvis/pelvis_tx/speed	/jointset/ground_pelvis/pelvis_ty/speed	/jointset/hip_l/hip_flexion_l/speed	/jointset/hip_l/hip_adduction_l/speed	/jointset/hip_l/hip_rotation_l/speed	/jointset/back/lumbar_extension/speed	/jointset/patellofemoral_l/patellar_flexion_l/speed	/jointset/knee_l/knee_flexion_l/speed	/jointset/knee_l/knee_adduction_l/speed	/jointset/knee_l/knee_rotation_l/speed	/jointset/ankle_l/ankle_angle_l/speed	/jointset/subtalar_l/subtalar_angle_l/speed	/forceset/tau_hip_flexion_l	/forceset/tau_hip_adduction_l	/forceset/tau_hip_rotation_l	/forceset/tau_knee_flexion_l	/forceset/tau_ankle_angle_l	/forceset/tau_subtalar_angle_l	/forceset/tau_lumbar_extension	lambda_cid13_p0	lambda_cid13_p1	lambda_cid13_p2	lambda_cid13_p3	lambda_cid13_p4	lambda_cid13_p5	lambda_cid14_p0	/jointset/ground_pelvis/pelvis_tilt/accel	/jointset/ground_pelvis/pelvis_tx/accel	/jointset/ground_pelvis/pelvis_ty/accel	/jointset/hip_l/hip_flexion_l/accel	/jointset/hip_l/hip_adduction_l/accel	/jointset/hip_l/hip_rotation_l/accel	/jointset/back/lumbar_extension/accel	/jointset/patellofemoral_l/patellar_flexion_l/accel	/jointset/knee_l/knee_flexion_l/accel	/jointset/knee_l/knee_adduction_l/accel	/jointset/knee_l/knee_rotation_l/accel	/jointset/ankle_l/ankle_angle_l/accel	/jointset/subtalar_l/subtalar_angle_l/accel	gamma_cid13_p0	gamma_cid13_p1	gamma_cid13_p2	gamma_cid13_p3	gamma_cid13_p4	gamma_cid13_p5	gamma_cid14_p0
0.5	-0.1611570219830361	-0.06460332025555357	0.6861971237385063	1.361973386147966	-0.3242944529770951	0.04017214743142074	-0.8352760888061644	1.352869085510538	1.352869085510544	-0.0463923983270074	-0.1744370664315738	0.2474082043661627	0.05664378428725994	-0.2055529009631487	-0.1150437337255561	-0.872588793600656	2.695396802695775	0.06056376072459457	0.8425303701514737	-0.759608713744887	2.798094531458771	2.798094531458734	0.2708573749568784	0.0001485069851329928	0.4991213448198223	0.2756929494000861	-0.3453582865196122	0.004303348564561302	-0.003074117980903319	-0.3161521725926223	0.08084489154458778	0.02954579450568295	0.3844236811202655	-18.66298958841877	-8.89042290746101	0.1937000758335643	-15.26270912953182	-711.81109242011	-63.13423151632707	-0.04243987033131898	1.198607535557746	1.127429407435348	-0.2647189603450646	-2.220542535057367	0.7434120206322886	-0.5384646126388376	2.59854551289691	-2.834073676310282	-2.834073676310281	-0.1329994957567196	0.0143152545434745	-1.975367847770406	0.3757623810904925	-2.308796570279321e-07	-5.511438548926502e-08	2.566924050079221e-06	6.950922650743252e-08	-3.320629584731259e-07	1.710527714397218e-06	-4.328292712276864e-07
0.51	-0.16315216985454	-0.06569761283670131	0.6774600446872842	1.388813364371451	-0.3236523755411059	0.04857177191092446	-0.8427420082131986	1.380704840003723	1.380704840003702	-0.04369306922892657	-0.1744354542142411	0.2522992020593459	0.05941788687596801	-0.193427268323612	-0.1038399080397521	-0.8746124145791273	2.672276206711387	0.0678421772760909	0.8373425509129192	-0.733564966079246	2.768694776594653	2.768694776594612	0.2689998199136773	0.0001692486300826782	0.4789654312153468	0.2790601538132697	-0.3538658672773247	0.003237192825100082	-0.00246539356896488	-0.3235329603093894	0.08002515372626957	0.02803546752009599	0.3927811516850685	-19.55321899625195	-7.901251376007047	-0.1665943855108148	-14.75730025826637	-720.6152373834158	-62.87581677999705	-0.04223308440272054	1.226916670016925	1.113099096228688	-0.1390510411724529	-2.406254971441243	0.7182967414585392	-0.5170408660133071	2.608819630964552	-3.047086022322884	-3.047086022323553	-0.2135710156130336	-0.004230253865519694	-2.052589398189081	0.3067984821813393	-1.575388139103215e-07	2.613322602407039e-08	2.202528421114531e-06	1.353436377587473e-08	-2.638063101242952e-07	1.603229820794752e-06	-3.689011224547363e-07
0.52	-0.1650245862912745	-0.06668061917157618	0.6687091559513625	1.415412449266832	-0.3229378658857903	0.05691789814072821	-0.8499471840960623	1.408235765022094	1.408235765022043	-0.04101260318266223	-0.1744336713550968	0.2569852633602036	0.06222358131095802	-0.1810066140094553	-0.0927864844709817	-0.8753507305405647	2.647218137074526	0.07505020458959584	0.8318307202123801	-0.7074600089109221	2.737128636496122	2.737128636496077	0.2670847645900302	0.0001826353415860837	0.4581340663547528	0.2820113186564174	-0.3623734480350336	0.002171037085636732	-0.001856669156855345	-0.3309137480261498	0.07920541590795099	0.02652514053450299	0.4011386222498754	-20.46062838495941	-6.903977737209058	-0.5339964543849284	-14.25319137622848	-729.6226245276246	-62.69527436256281	-0.04193826640083686	1.257611870481834	1.097348984028593	-0.007657956938328363	-2.60803726555204	0.7293341730340411	-0.6032669050357164	2.610787413433586	-3.2673507231929	-3.267350723192878	-0.144499551845913	0.01284426785423504	-2.110458098994172	0.2925544670833217	-1.037617525952523e-07	1.519727314176451e-08	1.836638126416029e-06	-4.779195898760024e-08	-2.140741408451074e-07	1.438746781832441e-06	-3.166087437086908e-07
0.53	-0.1667715244183611	-0.06755391508650685	0.6599572889884605	1.441751502906716	-0.3221514741741229	0.06520676363576187	-0.8568911142050341	1.435440496503577	1.435440496503563	-0.03835083106231862	-0.1744317183790574	0.2614599862285036	0.06505697966709054	-0.1683487510056624	-0.08190456580487109	-0.87480856936636	2.620279364299977	0.0822138671268393	0.8258872527291371	-0.6813320483778594	2.703478039232617	2.703478039232611	0.2652564747757727	0.0002035100093528955	0.4367278281771146	0.2846005659905773	-0.370303195059028	0.0009765049932383171	-0.001208464493988474	-0.3381236719702469	0.07849283740636065	0.02494020242464911	0.408937600568206	-21.31307238709928	-5.873336766781249	-0.9188141422965919	-13.73228811008116	-738.1435941736205	-62.48251986804146	-0.04159290216944841	1.274684274797464	1.078817213546817	0.1172294651586546	-2.783811774755425	0.7075143192104524	-0.5983692948579157	2.612895049239222	-3.464799484670845	-3.464799484664991	-0.2040905235996894	-0.003595421414937437	-2.168082181958	0.2317433224691195	-5.419862333358408e-08	-8.92648224604163e-09	1.463916490127341e-06	-1.086008230232784e-07	-1.686463383029559e-07	1.224069728365654e-06	-2.621255160427315e-07
0.54	-0.1683909217635142	-0.06831935103364783	0.6512172588994123	1.467811765920589	-0.3212939194320529	0.07343449793097985	-0.8635739457734749	1.462298544961075	1.4622985449611	-0.03570776120559987	-0.1744296175538494	0.2657181716140655	0.06791419718774237	-0.155498457623086	-0.07121449091304355	-0.8729833557698009	2.59146001187146	0.08928281066971812	0.8196044802503213	-0.6552403008049246	2.667792031699451	2.667792031699484	0.2633443118661603	0.0002122051710082856	0.4148265698071015	0.2867751515602111	-0.3782329420830136	-0.0002180270991583216	-0.0005602598311235886	-0.3453335959143423	0.07778025890477067	0.02335526431479746	0.4167365788865452	-22.1860899625192	-4.834364398016771	-1.310360184740835	-13.19751196125959	-746.9031349050834	-62.34706672674006	-0.04126792985230863	1.296097946238612	1.058980229171924	0.2489525275325056	-2.984153196345657	0.7103903741611541	-0.6711279041502461	2.603544821408124	-3.674432777125101	-3.674432777125092	-0.1612741709168957	0.01040836663203815	-2.209462137469248	0.2096221141781428	-9.297716769295794e-09	-4.764099785269929e-08	1.083636773781424e-06	-1.688371795303301e-07	-1.279808138528449e-07	9.538588716173183e-07	-2.052183704228252e-07
0.55	-0.1698810523437871	-0.06897891267720527	0.6425018588337152	1.49357461125058	-0.3203660201977919	0.08159711791745024	-0.8699961670022885	1.488789821096467	1.488789821096454	-0.03308347573811594	-0.1744273860195231	0.2697552307140983	0.07079134658856458	-0.1425133934052574	-0.06073610927352063	-0.8698851014888174	2.560803083265729	0.09627704427342645	0.8128631891598594	-0.6292261060549104	2.630144694172849	2.63014469417279	0.2614906612099531	0.000230427855746025	0.3925344917738265	0.2885869250106387	-0.3855149834395065	-0.001469947059197403	0.0001045792217736313	-0.3522590630477531	0.07716651520076755	0.02168565752820242	0.4239063338724076	-22.99998556646182	-3.758714903706948	-1.719471103885333	-12.65562098259251	-755.0582490969058	-62.1526370527934	-0.0409517766702612	1.301828416968316	1.036486071239202	0.3719741005492199	-3.152378776325157	0.6908186031622796	-0.6842040310989849	2.59703263740206	-3.857624585710698	-3.857624585724776	-0.2008123024656236	-0.00282754790523904	-2.246673839718632	0.1566889017809503	3.098571965001849e-08	-9.267565080303418e-08	7.113758211245904e-07	-2.258972746239834e-07	-9.138030861796253e-08	6.47683064608967e-07	-1.475507043688851e-07
0.5600000000000001	-0.1712409087303965	-0.06953484671638846	0.6338237837552616	1.519021704077788	-0.3193688028775546	0.08969061012909105	-0.8761589111164804	1.514895075787536	1.514895075787491	-0.03047840713512716	-0.1744250436118019	0.2735678503931062	0.07368456051215268	-0.1294436188908932	-0.05048897003819268	-0.8655183583211173	2.528309511314459	0.1031464278645925	0.8057789252852076	-0.6033448778807298	2.590587742834925	2.590587742834772	0.2595009389740351	0.0002343798484898308	0.3699386856020708	0.2899880561133026	-0.3927970247959935	-0.002721867019227286	0.0007694182744951143	-0.3591845301811691	0.07655277149676777	0.02001605074162362	0.4310760888582759	-23.83725713980319	-2.674887221099816	-2.134551482391795	-12.08530077642003	-763.4788790495837	-62.0344288018011	-0.04065286109373686	1.313040005545786	1.012731748332874	0.5026503048758202	-3.351481865453478	0.6854203716527248	-0.7397224609882137	2.576951506241476	-4.056355539389652	-4.056355539389625	-0.1884884868590582	0.00755422823338617	-2.270207765165473	0.1274936446254618	6.572819189536417e-08	-1.452944685657815e-07	3.487373848946557e-07	-2.791458560215587e-07	-5.965782644135451e-08	2.983493172885976e-07	-8.897041379410434e-08
0.5700000000000001	-0.1724698557636394	-0.06998952620059833	0.6251956629839867	1.544134826963696	-0.3183034153449294	0.09771086748906792	-0.8820636028122839	1.540595452640492	1.54059545264047	-0.02789312174337611	-0.1744226053991429	0.2771533669694561	0.07658997891241089	-0.1163518647440012	-0.04049104759174516	-0.8598990525959624	2.494016602736008	0.1099042034357413	0.798209234492711	-0.5776271997372101	2.549189967556194	2.549189967556068	0.2575292182145072	0.0002491524448386425	0.3471478169264081	0.2910285109640867	-0.3993972737859397	-0.004024571090765145	0.001425615118957522	-0.3657131485506518	0.0760004733976983	0.01830026839391878	0.4375840032137465	-24.61943997151381	-1.57578063933812	-2.557631241700114	-11.51993808830083	-771.20460930748	-61.88300491129853	-0.04036311477416112	1.306315213618664	0.9866425211868431	0.6225738642378182	-3.512976500699976	0.6669023111043815	-0.7751317291400284	2.564115199983267	-4.226126385355079	-4.226126385350884	-0.2055898221975823	-0.002149915498129314	-2.286035732984095	0.08226258519000372	9.572302777424101e-08	-1.99120639401731e-07	5.631810896886454e-09	-3.271978752073898e-07	-3.177249929691898e-08	-7.066641147958786e-08	-3.11389682128241e-08
0.58	-0.1735680708365377	-0.07034556245466675	0.6166299359015438	1.568896064534496	-0.3171712608243376	0.1056535200729481	-0.8877121298803353	1.565872924168013	1.565872924168004	-0.02532836874954786	-0.174420137198676	0.2805104729962065	0.07950379009715447	-0.103297226822792	-0.03076032400990429	-0.8530396205547036	2.457932448291198	0.1164998254572283	0.7902579700698253	-0.5521119523306434	2.506006677747857	2.506006677747759	0.255394459387066	0.0002403774078375597	0.3242565756820477	0.2916666130102746	-0.4059975227758602	-0.005327275162319498	0.002081811963552296	-0.3722417669201291	0.07544817529861979	0.01658448604618534	0.4440919175692418	-25.42703461355057	-0.4689731941312938	-2.985652867765507	-10.91333444125207	-779.2144925783895	-61.80595163361535	-0.04008768248685896	1.305616760409372	0.9592919754114855	0.7506755680965859	-3.70973103872516	0.6529896617204608	-0.816037187065967	2.536465358850959	-4.413458445310778	-4.41345844531079	-0.2210961004416865	0.002844701563548508	-2.290282278905099	0.04702308370626747	1.195348953619025e-07	-2.545191770306873e-07	-3.1203561693806e-07	-3.684822784895537e-07	-8.884397310661727e-09	-4.653144881798079e-07	2.571723737692004e-08
0.59	-0.1745361157465386	-0.07060568599751013	0.6081389361859977	1.593287591351837	-0.315973891718629	0.113514087678997	-0.893106641385143	1.59070984927444	1.59070984927442	-0.02278504444947526	-0.1744177024797168	0.2836385442046749	0.08242219664020276	-0.09033714477710754	-0.02131424841078509	-0.8449600832719804	2.420079082484706	0.1229392690313313	0.7817845340226344	-0.5268369808600279	2.461100804637554	2.461100804637522	0.2532385448692073	0.0002428117562155078	0.3013760573699117	0.2919491070542334	-0.4118727475204815	-0.006643237150343715	0.002705040232849855	-0.3782819137840871	0.07493094030930325	0.01483487306956056	0.4498890724429193	-26.18194937494413	0.6451714864843675	-3.416977905177879	-10.31396665087656	-786.4447197228758	-61.69391967160534	-0.03983305119895247	1.287384049336486	0.9297072403597563	0.8666296056698617	-3.867218649581696	0.6342769657601159	-0.8736188631269564	2.516018206956351	-4.570794384301653	-4.570794384291993	-0.217601547876369	-0.001743630842958851	-2.284173929398446	0.009126484568844902	1.389452680671328e-07	-3.070221650859199e-07	-6.019025488481739e-07	-4.032904578740517e-07	1.076789686572355e-08	-8.607639694229836e-07	8.028078763627239e-08
